<svg width="18" height="18" viewBox="0 0 18 18" fill="none" xmlns="http://www.w3.org/2000/svg">
<path d="M8.5 1.16357H2C1.44772 1.16357 1 1.61129 1 2.16357V15.1636C1 15.7159 1.44772 16.1636 2 16.1636H15C15.5523 16.1636 16 15.7159 16 15.1636V8.66357" stroke="#1890FF" stroke-width="1.5"/>
<path d="M12.7603 1.24585H15.5C15.7761 1.24585 16 1.46971 16 1.74585V4.24585" stroke="#1890FF" stroke-width="1.5" stroke-linecap="round" stroke-linejoin="round"/>
<path d="M9.07821 8.03624C8.84537 7.80265 8.84537 7.42392 9.07821 7.19032L14.8269 1.42291C15.0598 1.18932 15.4373 1.18932 15.6701 1.42291V1.42291C15.903 1.65651 15.903 2.03524 15.6701 2.26883L9.92139 8.03624C9.68855 8.26984 9.31105 8.26984 9.07821 8.03624V8.03624Z" fill="#1890FF"/>
</svg>
