<svg width="130" height="130" viewBox="0 0 130 130" fill="none" xmlns="http://www.w3.org/2000/svg">
<path d="M110 26.3249V129L55 129L55 78.4301L110 26.3249Z" fill="#E6F7FF" stroke="#1890FF" stroke-width="2" stroke-linecap="round" stroke-linejoin="round"/>
<path d="M1 129H129" stroke="#595959" stroke-width="2" stroke-linecap="round"/>
<path d="M1 129L1 0.999995" stroke="#595959" stroke-width="2" stroke-linecap="round"/>
<path d="M52.0505 82.6476C52.4525 82.2688 52.4713 81.6359 52.0925 81.234C51.7138 80.8321 51.0809 80.8133 50.6789 81.192L52.0505 82.6476ZM3.77261 125.392C3.37066 125.771 3.35186 126.404 3.73062 126.806C4.10938 127.208 4.74226 127.227 5.14421 126.848L3.77261 125.392ZM49.1154 82.6654C48.7135 83.0441 48.6947 83.677 49.0734 84.0789C49.4522 84.4809 50.0851 84.4997 50.487 84.1209L49.1154 82.6654ZM45.7964 88.541C46.1983 88.1622 46.2171 87.5293 45.8384 87.1274C45.4596 86.7254 44.8267 86.7066 44.4248 87.0854L45.7964 88.541ZM41.2977 90.0321C40.8957 90.4108 40.8769 91.0437 41.2557 91.4457C41.6344 91.8476 42.2673 91.8664 42.6693 91.4876L41.2977 90.0321ZM37.9786 95.9077C38.3806 95.5289 38.3994 94.896 38.0206 94.4941C37.6419 94.0921 37.009 94.0733 36.607 94.4521L37.9786 95.9077ZM33.48 97.3988C33.078 97.7775 33.0592 98.4104 33.438 98.8124C33.8167 99.2143 34.4496 99.2331 34.8516 98.8544L33.48 97.3988ZM30.1609 103.274C30.5629 102.896 30.5817 102.263 30.2029 101.861C29.8242 101.459 29.1913 101.44 28.7893 101.819L30.1609 103.274ZM25.6622 104.765C25.2603 105.144 25.2415 105.777 25.6202 106.179C25.999 106.581 26.6319 106.6 27.0338 106.221L25.6622 104.765ZM22.3432 110.641C22.7451 110.262 22.7639 109.629 22.3852 109.228C22.0064 108.826 21.3735 108.807 20.9716 109.186L22.3432 110.641ZM17.8445 112.132C17.4426 112.511 17.4238 113.144 17.8025 113.546C18.1813 113.948 18.8142 113.967 19.2161 113.588L17.8445 112.132ZM14.5255 118.008C14.9274 117.629 14.9462 116.996 14.5675 116.594C14.1887 116.192 13.5558 116.173 13.1539 116.552L14.5255 118.008ZM10.0268 119.499C9.62484 119.878 9.60604 120.511 9.9848 120.913C10.3636 121.314 10.9964 121.333 11.3984 120.954L10.0268 119.499ZM6.70776 125.375C7.1097 124.996 7.1285 124.363 6.74974 123.961C6.37099 123.559 5.7381 123.54 5.33615 123.919L6.70776 125.375ZM50.6789 81.192L49.1154 82.6654L50.487 84.1209L52.0505 82.6476L50.6789 81.192ZM44.4248 87.0854L41.2977 90.0321L42.6693 91.4876L45.7964 88.541L44.4248 87.0854ZM36.607 94.4521L33.48 97.3988L34.8516 98.8544L37.9786 95.9077L36.607 94.4521ZM28.7893 101.819L25.6622 104.765L27.0338 106.221L30.1609 103.274L28.7893 101.819ZM20.9716 109.186L17.8445 112.132L19.2161 113.588L22.3432 110.641L20.9716 109.186ZM13.1539 116.552L10.0268 119.499L11.3984 120.954L14.5255 118.008L13.1539 116.552ZM5.33615 123.919L3.77261 125.392L5.14421 126.848L6.70776 125.375L5.33615 123.919Z" fill="#1890FF"/>
</svg>
